<svg width="199" height="199" viewBox="0 0 199 199" fill="none" xmlns="http://www.w3.org/2000/svg">
<mask id="path-1-outside-1_6_136" maskUnits="userSpaceOnUse" x="-0.00452988" y="-0.00451207" width="64.1444" height="64.1444" fill="black">
<rect fill="#189AA7" x="-0.00452988" y="-0.00451207" width="64.1444" height="64.1444"/>
<path d="M32.1354 2.06776C48.4629 2.10464 62.1055 15.335 62.0676 32.1354C62.0296 48.9359 48.3274 62.1045 31.9999 62.0676C15.6725 62.0306 2.02979 48.8004 2.06774 31.9999C2.10575 15.1995 15.808 2.03096 32.1354 2.06776ZM32.1264 6.06775C18.3971 6.03678 6.3874 17.1962 6.35386 32.0096C6.3204 46.8231 18.2796 58.0366 32.0089 58.0676C45.7383 58.0986 57.749 46.9393 57.7824 32.1258C57.8158 17.3123 45.8557 6.09876 32.1264 6.06775Z"/>
</mask>
<path d="M32.1354 2.06776C48.4629 2.10464 62.1055 15.335 62.0676 32.1354C62.0296 48.9359 48.3274 62.1045 31.9999 62.0676C15.6725 62.0306 2.02979 48.8004 2.06774 31.9999C2.10575 15.1995 15.808 2.03096 32.1354 2.06776ZM32.1264 6.06775C18.3971 6.03678 6.3874 17.1962 6.35386 32.0096C6.3204 46.8231 18.2796 58.0366 32.0089 58.0676C45.7383 58.0986 57.749 46.9393 57.7824 32.1258C57.8158 17.3123 45.8557 6.09876 32.1264 6.06775Z" fill="#189AA7"/>
<path d="M32.1354 2.06776L32.1399 0.0677631L32.1399 0.067763L32.1354 2.06776ZM62.0676 32.1354L64.0676 32.14L64.0676 32.1399L62.0676 32.1354ZM31.9999 62.0676L31.9954 64.0676L31.9954 64.0676L31.9999 62.0676ZM2.06774 31.9999L0.0677453 31.9954L0.0677452 31.9954L2.06774 31.9999ZM32.1264 6.06775L32.1309 4.06775L32.1309 4.06775L32.1264 6.06775ZM6.35386 32.0096L4.35387 32.0051L4.35387 32.0051L6.35386 32.0096ZM32.0089 58.0676L32.0044 60.0676L32.0044 60.0676L32.0089 58.0676ZM57.7824 32.1258L59.7824 32.1303L59.7824 32.1303L57.7824 32.1258ZM32.1354 2.06776L32.1309 4.06775C47.3744 4.10218 60.1029 16.4555 60.0676 32.1309L62.0676 32.1354L64.0676 32.1399C64.108 14.2145 49.5514 0.107089 32.1399 0.0677631L32.1354 2.06776ZM62.0676 32.1354L60.0676 32.1309C60.0322 47.8064 47.2479 60.102 32.0044 60.0676L31.9999 62.0676L31.9954 64.0676C49.4068 64.1069 64.0271 50.0655 64.0676 32.14L62.0676 32.1354ZM31.9999 62.0676L32.0044 60.0676C16.761 60.0331 4.03233 47.6798 4.06773 32.0044L2.06774 31.9999L0.0677452 31.9954C0.0272587 49.9209 14.584 64.0282 31.9954 64.0676L31.9999 62.0676ZM2.06774 31.9999L4.06773 32.0044C4.1032 16.3291 16.8875 4.0334 32.1309 4.06775L32.1354 2.06776L32.1399 0.067763C14.7286 0.028524 0.108295 14.07 0.0677453 31.9954L2.06774 31.9999ZM32.1264 6.06775L32.1309 4.06775C17.3229 4.03436 4.38997 16.0614 4.35387 32.0051L6.35386 32.0096L8.35386 32.0141C8.38484 18.331 19.4713 8.03921 32.1219 8.06774L32.1264 6.06775ZM6.35386 32.0096L4.35387 32.0051C4.31786 47.9488 17.1964 60.0341 32.0044 60.0676L32.0089 58.0676L32.0135 56.0676C19.3628 56.039 8.32295 45.6973 8.35386 32.0141L6.35386 32.0096ZM32.0089 58.0676L32.0044 60.0676C46.8124 60.1011 59.7464 48.0741 59.7824 32.1303L57.7824 32.1258L55.7824 32.1212C55.7515 45.8044 44.6642 56.0962 32.0135 56.0676L32.0089 58.0676ZM57.7824 32.1258L59.7824 32.1303C59.8184 16.1865 46.9388 4.1012 32.1309 4.06775L32.1264 6.06775L32.1219 8.06774C44.7725 8.09632 55.8133 18.4382 55.7824 32.1213L57.7824 32.1258Z" fill="#189AA7" mask="url(#path-1-outside-1_6_136)"/>
<mask id="path-3-outside-2_6_136" maskUnits="userSpaceOnUse" x="-0.00452988" y="133.995" width="64.1444" height="64.1444" fill="black">
<rect fill="#189AA7" x="-0.00452988" y="133.995" width="64.1444" height="64.1444"/>
<path d="M32.1354 136.068C48.4629 136.105 62.1055 149.335 62.0676 166.135C62.0296 182.936 48.3274 196.104 31.9999 196.068C15.6725 196.031 2.02979 182.8 2.06774 166C2.10575 149.2 15.808 136.031 32.1354 136.068ZM32.1264 140.068C18.3971 140.037 6.3874 151.196 6.35386 166.01C6.3204 180.823 18.2796 192.037 32.0089 192.068C45.7383 192.099 57.749 180.939 57.7824 166.126C57.8158 151.312 45.8557 140.099 32.1264 140.068Z"/>
</mask>
<path d="M32.1354 136.068C48.4629 136.105 62.1055 149.335 62.0676 166.135C62.0296 182.936 48.3274 196.104 31.9999 196.068C15.6725 196.031 2.02979 182.8 2.06774 166C2.10575 149.2 15.808 136.031 32.1354 136.068ZM32.1264 140.068C18.3971 140.037 6.3874 151.196 6.35386 166.01C6.3204 180.823 18.2796 192.037 32.0089 192.068C45.7383 192.099 57.749 180.939 57.7824 166.126C57.8158 151.312 45.8557 140.099 32.1264 140.068Z" fill="#189AA7"/>
<path d="M32.1354 136.068L32.1399 134.068L32.1399 134.068L32.1354 136.068ZM62.0676 166.135L64.0676 166.14L64.0676 166.14L62.0676 166.135ZM31.9999 196.068L31.9954 198.068L31.9954 198.068L31.9999 196.068ZM2.06774 166L0.0677453 165.995L0.0677452 165.995L2.06774 166ZM32.1264 140.068L32.1309 138.068L32.1309 138.068L32.1264 140.068ZM6.35386 166.01L4.35387 166.005L4.35387 166.005L6.35386 166.01ZM32.0089 192.068L32.0044 194.068L32.0044 194.068L32.0089 192.068ZM57.7824 166.126L59.7824 166.13L59.7824 166.13L57.7824 166.126ZM32.1354 136.068L32.1309 138.068C47.3744 138.102 60.1029 150.456 60.0676 166.131L62.0676 166.135L64.0676 166.14C64.108 148.214 49.5514 134.107 32.1399 134.068L32.1354 136.068ZM62.0676 166.135L60.0676 166.131C60.0322 181.806 47.2479 194.102 32.0044 194.068L31.9999 196.068L31.9954 198.068C49.4068 198.107 64.0271 184.065 64.0676 166.14L62.0676 166.135ZM31.9999 196.068L32.0044 194.068C16.761 194.033 4.03233 181.68 4.06773 166.004L2.06774 166L0.0677452 165.995C0.0272587 183.921 14.584 198.028 31.9954 198.068L31.9999 196.068ZM2.06774 166L4.06773 166.004C4.1032 150.329 16.8875 138.033 32.1309 138.068L32.1354 136.068L32.1399 134.068C14.7286 134.029 0.108295 148.07 0.0677453 165.995L2.06774 166ZM32.1264 140.068L32.1309 138.068C17.3229 138.034 4.38997 150.061 4.35387 166.005L6.35386 166.01L8.35386 166.014C8.38484 152.331 19.4713 142.039 32.1219 142.068L32.1264 140.068ZM6.35386 166.01L4.35387 166.005C4.31786 181.949 17.1964 194.034 32.0044 194.068L32.0089 192.068L32.0135 190.068C19.3628 190.039 8.32295 179.697 8.35386 166.014L6.35386 166.01ZM32.0089 192.068L32.0044 194.068C46.8124 194.101 59.7464 182.074 59.7824 166.13L57.7824 166.126L55.7824 166.121C55.7515 179.804 44.6642 190.096 32.0135 190.068L32.0089 192.068ZM57.7824 166.126L59.7824 166.13C59.8184 150.187 46.9388 138.101 32.1309 138.068L32.1264 140.068L32.1219 142.068C44.7725 142.096 55.8133 152.438 55.7824 166.121L57.7824 166.126Z" fill="#189AA7" mask="url(#path-3-outside-2_6_136)"/>
<mask id="path-5-outside-3_6_136" maskUnits="userSpaceOnUse" x="131.996" y="133.995" width="64.1444" height="64.1444" fill="black">
<rect fill="#189AA7" x="131.996" y="133.995" width="64.1444" height="64.1444"/>
<path d="M164.135 136.068C180.463 136.105 194.106 149.335 194.068 166.135C194.03 182.936 180.327 196.104 164 196.068C147.673 196.031 134.03 182.8 134.068 166C134.106 149.2 147.808 136.031 164.135 136.068ZM164.126 140.068C150.397 140.037 138.387 151.196 138.354 166.01C138.32 180.823 150.28 192.037 164.009 192.068C177.738 192.099 189.749 180.939 189.783 166.126C189.816 151.312 177.856 140.099 164.126 140.068Z"/>
</mask>
<path d="M164.135 136.068C180.463 136.105 194.106 149.335 194.068 166.135C194.03 182.936 180.327 196.104 164 196.068C147.673 196.031 134.03 182.8 134.068 166C134.106 149.2 147.808 136.031 164.135 136.068ZM164.126 140.068C150.397 140.037 138.387 151.196 138.354 166.01C138.32 180.823 150.28 192.037 164.009 192.068C177.738 192.099 189.749 180.939 189.783 166.126C189.816 151.312 177.856 140.099 164.126 140.068Z" fill="#189AA7"/>
<path d="M164.135 136.068L164.14 134.068L164.14 134.068L164.135 136.068ZM194.068 166.135L196.068 166.14L196.068 166.14L194.068 166.135ZM164 196.068L163.995 198.068L163.995 198.068L164 196.068ZM134.068 166L132.068 165.995L132.068 165.995L134.068 166ZM164.126 140.068L164.131 138.068L164.131 138.068L164.126 140.068ZM138.354 166.01L136.354 166.005L136.354 166.005L138.354 166.01ZM164.009 192.068L164.004 194.068L164.004 194.068L164.009 192.068ZM189.783 166.126L191.782 166.13L191.782 166.13L189.783 166.126ZM164.135 136.068L164.131 138.068C179.374 138.102 192.103 150.456 192.068 166.131L194.068 166.135L196.068 166.14C196.108 148.214 181.551 134.107 164.14 134.068L164.135 136.068ZM194.068 166.135L192.068 166.131C192.032 181.806 179.248 194.102 164.004 194.068L164 196.068L163.995 198.068C181.407 198.107 196.027 184.065 196.068 166.14L194.068 166.135ZM164 196.068L164.004 194.068C148.761 194.033 136.032 181.68 136.068 166.004L134.068 166L132.068 165.995C132.027 183.921 146.584 198.028 163.995 198.068L164 196.068ZM134.068 166L136.068 166.004C136.103 150.329 148.888 138.033 164.131 138.068L164.135 136.068L164.14 134.068C146.729 134.029 132.108 148.07 132.068 165.995L134.068 166ZM164.126 140.068L164.131 138.068C149.323 138.034 136.39 150.061 136.354 166.005L138.354 166.01L140.354 166.014C140.385 152.331 151.471 142.039 164.122 142.068L164.126 140.068ZM138.354 166.01L136.354 166.005C136.318 181.949 149.196 194.034 164.004 194.068L164.009 192.068L164.014 190.068C151.363 190.039 140.323 179.697 140.354 166.014L138.354 166.01ZM164.009 192.068L164.004 194.068C178.812 194.101 191.746 182.074 191.782 166.13L189.783 166.126L187.783 166.121C187.752 179.804 176.664 190.096 164.014 190.068L164.009 192.068ZM189.783 166.126L191.782 166.13C191.818 150.187 178.939 138.101 164.131 138.068L164.126 140.068L164.122 142.068C176.773 142.096 187.813 152.438 187.783 166.121L189.783 166.126Z" fill="#189AA7" mask="url(#path-5-outside-3_6_136)"/>
<mask id="path-7-outside-4_6_136" maskUnits="userSpaceOnUse" x="133.996" y="-0.00451207" width="64.1444" height="64.1444" fill="black">
<rect fill="#189AA7" x="133.996" y="-0.00451207" width="64.1444" height="64.1444"/>
<path d="M166.135 2.06776C182.463 2.10464 196.106 15.335 196.068 32.1354C196.03 48.9359 182.327 62.1045 166 62.0676C149.673 62.0306 136.03 48.8004 136.068 31.9999C136.106 15.1995 149.808 2.03096 166.135 2.06776ZM166.126 6.06775C152.397 6.03678 140.387 17.1962 140.354 32.0096C140.32 46.8231 152.28 58.0366 166.009 58.0676C179.738 58.0986 191.749 46.9393 191.783 32.1258C191.816 17.3123 179.856 6.09876 166.126 6.06775Z"/>
</mask>
<path d="M166.135 2.06776C182.463 2.10464 196.106 15.335 196.068 32.1354C196.03 48.9359 182.327 62.1045 166 62.0676C149.673 62.0306 136.03 48.8004 136.068 31.9999C136.106 15.1995 149.808 2.03096 166.135 2.06776ZM166.126 6.06775C152.397 6.03678 140.387 17.1962 140.354 32.0096C140.32 46.8231 152.28 58.0366 166.009 58.0676C179.738 58.0986 191.749 46.9393 191.783 32.1258C191.816 17.3123 179.856 6.09876 166.126 6.06775Z" fill="#189AA7"/>
<path d="M166.135 2.06776L166.14 0.0677631L166.14 0.067763L166.135 2.06776ZM196.068 32.1354L198.068 32.14L198.068 32.1399L196.068 32.1354ZM166 62.0676L165.995 64.0676L165.995 64.0676L166 62.0676ZM136.068 31.9999L134.068 31.9954L134.068 31.9954L136.068 31.9999ZM166.126 6.06775L166.131 4.06775L166.131 4.06775L166.126 6.06775ZM140.354 32.0096L138.354 32.0051L138.354 32.0051L140.354 32.0096ZM166.009 58.0676L166.004 60.0676L166.004 60.0676L166.009 58.0676ZM191.783 32.1258L193.782 32.1303L193.782 32.1303L191.783 32.1258ZM166.135 2.06776L166.131 4.06775C181.374 4.10218 194.103 16.4555 194.068 32.1309L196.068 32.1354L198.068 32.1399C198.108 14.2145 183.551 0.107089 166.14 0.0677631L166.135 2.06776ZM196.068 32.1354L194.068 32.1309C194.032 47.8064 181.248 60.102 166.004 60.0676L166 62.0676L165.995 64.0676C183.407 64.1069 198.027 50.0655 198.068 32.14L196.068 32.1354ZM166 62.0676L166.004 60.0676C150.761 60.0331 138.032 47.6798 138.068 32.0044L136.068 31.9999L134.068 31.9954C134.027 49.9209 148.584 64.0282 165.995 64.0676L166 62.0676ZM136.068 31.9999L138.068 32.0044C138.103 16.3291 150.888 4.0334 166.131 4.06775L166.135 2.06776L166.14 0.067763C148.729 0.028524 134.108 14.07 134.068 31.9954L136.068 31.9999ZM166.126 6.06775L166.131 4.06775C151.323 4.03436 138.39 16.0614 138.354 32.0051L140.354 32.0096L142.354 32.0141C142.385 18.331 153.471 8.03921 166.122 8.06774L166.126 6.06775ZM140.354 32.0096L138.354 32.0051C138.318 47.9488 151.196 60.0341 166.004 60.0676L166.009 58.0676L166.014 56.0676C153.363 56.039 142.323 45.6973 142.354 32.0141L140.354 32.0096ZM166.009 58.0676L166.004 60.0676C180.812 60.1011 193.746 48.0741 193.782 32.1303L191.783 32.1258L189.783 32.1212C189.752 45.8044 178.664 56.0962 166.014 56.0676L166.009 58.0676ZM191.783 32.1258L193.782 32.1303C193.818 16.1865 180.939 4.1012 166.131 4.06775L166.126 6.06775L166.122 8.06774C178.773 8.09632 189.813 18.4382 189.783 32.1213L191.783 32.1258Z" fill="#189AA7" mask="url(#path-7-outside-4_6_136)"/>
<path d="M162.533 27.4632C168.408 26.0764 168.96 27.7338 166.938 33.3518L139.047 73.0979C145.803 89.4005 146.473 100.038 139.047 123.15L166.938 161.424C167.613 169.183 165.964 169.399 162.533 168.784L121.432 139.343C102.515 149.027 91.9073 148.39 72.9904 139.343L34.8244 168.784C29.4221 168.852 27.4543 167.659 27.4845 161.424L56.8429 123.15C50.56 103.978 48.1579 93.1611 56.8429 73.0979L27.4845 33.3518C26.5862 28.5811 26.1817 25.9829 33.3556 27.4632L72.9904 55.4329C90.5513 48.7804 101.042 47.4659 122.9 56.9056L162.533 27.4632ZM126.5 89.5003C130.9 115.5 115.667 124.334 107.5 125.5V100H98.5002V137.5C113.3 139.9 127.667 124.5 133 116.5C139.4 99.3006 135.667 86.3339 133 82.0003L126.5 89.5003ZM101.957 59.305C91.915 57.8867 80.3864 59.9186 69.6642 69.6292L69.6427 69.6487L69.6242 69.6712C65.487 74.3994 60.5377 82.9116 59.0929 93.1302C57.6452 103.37 59.7203 115.309 69.6213 126.826L69.633 126.84L69.6467 126.854C70.2447 127.452 71.2187 128.324 72.2052 129C72.6973 129.338 73.2099 129.639 73.6926 129.829C74.1569 130.013 74.6868 130.131 75.1584 129.974L75.5002 129.861V117.302L75.3644 117.158C72.9846 114.62 68.4452 106.911 69.4513 96.5003H97.5002V87.0003H70.6369C72.0925 81.5471 77.3961 75.0161 85.4728 71.802C93.8143 68.4827 105.143 68.6961 118.223 77.4163L118.577 77.6516L118.866 77.3401L125.366 70.3401L125.724 69.9554L125.322 69.6175C120.514 65.568 111.978 60.7203 101.957 59.305Z" fill="#189AA7"/>
</svg>
